<?xml version="1.0" encoding="UTF-8" standalone="no"?>
<!DOCTYPE svg PUBLIC "-//W3C//DTD SVG 1.1//EN" "http://www.w3.org/Graphics/SVG/1.1/DTD/svg11.dtd">
<svg width="100%" height="100%" viewBox="0 0 80 25" version="1.1" xmlns="http://www.w3.org/2000/svg" xmlns:xlink="http://www.w3.org/1999/xlink" xml:space="preserve" xmlns:serif="http://www.serif.com/" style="fill-rule:evenodd;clip-rule:evenodd;stroke-linejoin:round;stroke-miterlimit:2;">
    <g id="Artboard1" transform="matrix(1.09364,0,0,1.9857,0,-0.0397141)">
        <rect x="0" y="0.02" width="73.15" height="12.59" style="fill:none;"/>
        <g transform="matrix(0.914375,0,0,0.5036,3.13173,0.28439)">
            <path d="M73.15,3.35L64.65,3.35L64.65,5.41L67.63,5.41L67.63,15.61L70.11,15.61L70.11,5.41L73.14,5.41L73.14,3.35L73.15,3.35ZM60.53,6.67L61.67,11.04L59.38,11.04L60.53,6.67ZM62.88,15.61L65.52,15.61L61.66,3.35L59.39,3.35L55.56,15.61L58.18,15.61L58.84,13.1L62.22,13.1L62.88,15.61ZM51.39,13.77C50.77,13.77 50.32,13.61 50.04,13.29C49.76,12.97 49.63,12.46 49.63,11.75L47.15,11.75C47.15,12.58 47.33,13.29 47.7,13.9C48.07,14.51 48.58,14.97 49.23,15.3C49.88,15.63 50.6,15.79 51.39,15.79C52.56,15.79 53.48,15.49 54.16,14.89C54.84,14.29 55.18,13.45 55.18,12.39C55.18,11.42 54.91,10.62 54.37,9.99C53.83,9.36 52.96,8.83 51.76,8.4C51.08,8.11 50.6,7.83 50.33,7.55C50.06,7.28 49.93,6.97 49.93,6.64C49.93,6.21 50.05,5.86 50.29,5.61C50.53,5.36 50.87,5.23 51.3,5.23C51.76,5.23 52.11,5.38 52.36,5.68C52.6,5.98 52.73,6.42 52.73,6.99L55.2,6.99C55.2,6.25 55.04,5.6 54.72,5.02C54.4,4.44 53.95,3.99 53.36,3.68C52.77,3.36 52.1,3.2 51.35,3.2C50.22,3.2 49.29,3.51 48.56,4.14C47.83,4.77 47.46,5.6 47.46,6.63C47.46,7.48 47.73,8.22 48.27,8.85C48.81,9.48 49.69,10.02 50.92,10.49C51.59,10.77 52.06,11.03 52.31,11.29C52.57,11.54 52.69,11.92 52.69,12.42C52.69,13.34 52.26,13.79 51.39,13.79" style="fill-rule:nonzero;"/>
        </g>
        <g transform="matrix(0.914375,0,0,0.5036,3.13173,0.28439)">
            <path d="M46.5,3.35L38.51,3.35L38.51,4.67L41.73,4.67L41.73,15.61L43.27,15.61L43.27,4.67L46.5,4.67L46.5,3.35ZM32.84,4.67L34.69,4.67C36.12,4.67 36.83,5.46 36.83,7.03C36.83,7.73 36.64,8.28 36.25,8.7C35.87,9.12 35.35,9.32 34.71,9.32L32.84,9.32L32.84,4.67ZM37.17,15.61L38.84,15.61L38.84,15.51L36.46,10.3C37.07,10.01 37.54,9.59 37.88,9.02C38.22,8.45 38.38,7.79 38.38,7.04C38.38,5.83 38.07,4.92 37.45,4.29C36.83,3.66 35.92,3.35 34.72,3.35L31.28,3.35L31.28,15.61L32.83,15.61L32.83,10.65L34.99,10.65L37.17,15.61ZM25.46,5.5L27.14,11.08L23.8,11.08L25.47,5.5L25.46,5.5ZM28.49,15.61L30.08,15.61L26.12,3.35L24.8,3.35L20.85,15.61L22.43,15.61L23.38,12.4L27.52,12.4L28.49,15.61ZM9.09,3.35L9.09,15.61L10.63,15.61L10.63,10.83L10.49,6.08L13.68,15.61L14.86,15.61L18.07,6.05L17.93,10.83L17.93,15.61L19.47,15.61L19.47,3.35L17.48,3.35L14.28,13.36L11.08,3.35L9.09,3.35ZM5.45,13.94C5.11,14.29 4.6,14.46 3.92,14.46C3.19,14.46 2.61,14.25 2.19,13.83C1.77,13.41 1.55,12.82 1.55,12.06L0,12.06C0,12.79 0.17,13.44 0.52,14C0.87,14.56 1.34,15 1.94,15.31C2.54,15.62 3.2,15.78 3.91,15.78C5.02,15.78 5.9,15.48 6.55,14.88C7.2,14.28 7.52,13.49 7.52,12.49C7.52,11.49 7.26,10.78 6.74,10.2C6.22,9.62 5.36,9.12 4.15,8.73C3.37,8.45 2.8,8.14 2.43,7.79C2.06,7.44 1.87,7.01 1.87,6.49C1.87,5.86 2.04,5.37 2.38,5.02C2.72,4.67 3.21,4.5 3.83,4.5C4.51,4.5 5.04,4.71 5.4,5.12C5.76,5.54 5.95,6.12 5.95,6.88L7.5,6.88C7.5,6.2 7.35,5.57 7.04,5C6.74,4.43 6.3,3.98 5.74,3.66C5.18,3.34 4.54,3.18 3.82,3.18C2.77,3.18 1.92,3.49 1.27,4.12C0.62,4.75 0.3,5.55 0.3,6.52C0.3,7.08 0.41,7.58 0.64,8.02C0.87,8.45 1.21,8.84 1.67,9.18C2.13,9.52 2.79,9.84 3.65,10.15C4.51,10.46 5.11,10.78 5.44,11.1C5.77,11.43 5.94,11.89 5.94,12.51C5.94,13.13 5.77,13.58 5.43,13.93" style="fill-rule:nonzero;"/>
        </g>
        <g transform="matrix(0.914375,0,0,0.5036,3.11802,-0.13108)">
            <path d="M72.73,20L71.66,20L71.66,19.19L72.92,19.19L72.92,18.62L70.97,18.62L70.97,22.03L72.93,22.03L72.93,21.46L71.66,21.46L71.66,20.56L72.73,20.56L72.73,20ZM68.77,19.19L69.17,19.19C69.44,19.19 69.57,19.36 69.57,19.7C69.57,19.85 69.54,19.97 69.47,20.07C69.4,20.16 69.3,20.21 69.16,20.21L68.77,20.21L68.77,19.19ZM69.62,22.02L70.36,22.02L70.36,21.99L69.76,20.6C70.09,20.42 70.25,20.1 70.25,19.65C70.25,19.32 70.16,19.07 69.97,18.89C69.78,18.71 69.52,18.62 69.17,18.62L68.07,18.62L68.07,22.03L68.76,22.03L68.76,20.79L69.1,20.79L69.61,22.03L69.62,22.02ZM67.44,18.61L65.08,18.61L65.08,19.18L65.91,19.18L65.91,22.01L66.6,22.01L66.6,19.18L67.44,19.18L67.44,18.61ZM64.52,18.61L63.83,18.61L63.83,20.85L62.82,18.61L62.13,18.61L62.13,22.02L62.82,22.02L62.82,19.79L63.83,22.02L64.52,22.02L64.52,18.61ZM61.3,19.99L60.23,19.99L60.23,19.18L61.49,19.18L61.49,18.61L59.54,18.61L59.54,22.02L61.5,22.02L61.5,21.45L60.23,21.45L60.23,20.55L61.3,20.55L61.3,19.99ZM58.19,20.88C58.19,21.11 58.14,21.27 58.07,21.36C58,21.45 57.88,21.49 57.7,21.49C57.52,21.49 57.39,21.43 57.31,21.3C57.23,21.17 57.2,20.94 57.2,20.6L57.2,19.96C57.2,19.66 57.24,19.45 57.32,19.32C57.4,19.19 57.53,19.13 57.71,19.13C57.89,19.13 58.01,19.18 58.08,19.27C58.15,19.36 58.19,19.53 58.19,19.77L58.88,19.77C58.85,19.38 58.74,19.08 58.55,18.88C58.36,18.67 58.08,18.57 57.7,18.57C57.32,18.57 57.03,18.7 56.82,18.95C56.61,19.2 56.5,19.56 56.5,20.03L56.5,20.6C56.5,21.07 56.6,21.43 56.81,21.68C57.02,21.93 57.31,22.06 57.7,22.06C58.09,22.06 58.35,21.96 58.55,21.76C58.75,21.56 58.86,21.27 58.88,20.88L58.19,20.88ZM54.44,18.61L53.76,18.61L53.76,19.99L52.74,19.99L52.74,18.61L52.05,18.61L52.05,22.02L52.74,22.02L52.74,20.56L53.76,20.56L53.76,22.02L54.44,22.02L54.44,18.61ZM50.7,20.88C50.7,21.11 50.65,21.27 50.58,21.36C50.51,21.45 50.39,21.49 50.21,21.49C50.03,21.49 49.9,21.43 49.82,21.3C49.74,21.17 49.71,20.94 49.71,20.6L49.71,19.96C49.71,19.66 49.75,19.45 49.83,19.32C49.91,19.19 50.04,19.13 50.22,19.13C50.4,19.13 50.53,19.18 50.59,19.27C50.66,19.36 50.69,19.53 50.7,19.77L51.39,19.77C51.36,19.38 51.25,19.08 51.06,18.88C50.87,18.67 50.59,18.57 50.21,18.57C49.83,18.57 49.54,18.7 49.33,18.95C49.12,19.2 49.01,19.56 49.01,20.03L49.01,20.6C49.01,21.07 49.11,21.43 49.32,21.68C49.52,21.93 49.82,22.06 50.2,22.06C50.58,22.06 50.85,21.96 51.05,21.76C51.25,21.56 51.36,21.27 51.38,20.88L50.69,20.88L50.7,20.88ZM46.88,19.18L47.28,19.18C47.55,19.18 47.68,19.35 47.68,19.69C47.68,19.84 47.65,19.96 47.58,20.06C47.51,20.15 47.41,20.2 47.27,20.2L46.88,20.2L46.88,19.18ZM47.73,22.01L48.47,22.01L48.47,21.98L47.87,20.59C48.2,20.41 48.36,20.09 48.36,19.64C48.36,19.31 48.27,19.06 48.08,18.88C47.89,18.7 47.63,18.61 47.28,18.61L46.18,18.61L46.18,22.02L46.87,22.02L46.87,20.78L47.21,20.78L47.72,22.02L47.73,22.01ZM44.24,19.53L44.56,20.74L43.92,20.74L44.24,19.53ZM44.89,22.01L45.62,22.01L44.55,18.6L43.92,18.6L42.86,22.01L43.59,22.01L43.77,21.31L44.71,21.31L44.89,22.01ZM42.25,19.98L41.18,19.98L41.18,19.17L42.44,19.17L42.44,18.6L40.49,18.6L40.49,22.01L42.45,22.01L42.45,21.44L41.18,21.44L41.18,20.54L42.25,20.54L42.25,19.98ZM38.74,21.5C38.57,21.5 38.44,21.46 38.37,21.37C38.29,21.28 38.26,21.14 38.26,20.94L37.57,20.94C37.57,21.17 37.62,21.37 37.72,21.54C37.82,21.71 37.96,21.84 38.14,21.93C38.32,22.02 38.52,22.07 38.74,22.07C39.07,22.07 39.32,21.99 39.51,21.82C39.7,21.65 39.79,21.42 39.79,21.12C39.79,20.85 39.71,20.63 39.56,20.45C39.41,20.27 39.17,20.13 38.84,20.01C38.65,19.93 38.52,19.85 38.44,19.78C38.37,19.7 38.33,19.62 38.33,19.53C38.33,19.41 38.36,19.31 38.43,19.24C38.5,19.17 38.59,19.13 38.71,19.13C38.84,19.13 38.93,19.17 39,19.25C39.07,19.33 39.1,19.45 39.1,19.61L39.78,19.61C39.78,19.41 39.74,19.22 39.65,19.06C39.56,18.9 39.44,18.78 39.27,18.69C39.11,18.6 38.92,18.56 38.71,18.56C38.4,18.56 38.14,18.65 37.94,18.82C37.74,18.99 37.63,19.23 37.63,19.51C37.63,19.75 37.7,19.95 37.85,20.13C38,20.3 38.25,20.45 38.59,20.58C38.78,20.66 38.91,20.73 38.98,20.8C39.05,20.87 39.09,20.98 39.09,21.12C39.09,21.37 38.97,21.5 38.73,21.5M36.82,19.98L35.75,19.98L35.75,19.17L37.01,19.17L37.01,18.6L35.06,18.6L35.06,22.01L37.02,22.01L37.02,21.44L35.75,21.44L35.75,20.54L36.82,20.54L36.82,19.98ZM32.86,19.17L33.26,19.17C33.53,19.17 33.66,19.34 33.66,19.68C33.66,19.83 33.62,19.95 33.56,20.05C33.49,20.14 33.39,20.19 33.25,20.19L32.86,20.19L32.86,19.17ZM33.71,22L34.45,22L34.45,21.97L33.85,20.58C34.18,20.4 34.34,20.08 34.34,19.63C34.34,19.3 34.25,19.05 34.06,18.87C33.87,18.69 33.61,18.6 33.26,18.6L32.16,18.6L32.16,22.01L32.85,22.01L32.85,20.77L33.19,20.77L33.7,22.01L33.71,22ZM29.99,19.97L28.92,19.97L28.92,19.16L30.18,19.16L30.18,18.59L28.23,18.59L28.23,22L30.19,22L30.19,21.43L28.92,21.43L28.92,20.53L29.99,20.53L29.99,19.97ZM25.76,18.59L25,18.59L25.97,22L26.69,22L27.67,18.59L26.9,18.59L26.33,21.06L25.76,18.59ZM24.41,18.59L23.72,18.59L23.72,22L24.41,22L24.41,18.59ZM23.06,18.59L20.7,18.59L20.7,19.16L21.53,19.16L21.53,21.99L22.22,21.99L22.22,19.16L23.06,19.16L23.06,18.59ZM19.19,19.51L19.51,20.72L18.87,20.72L19.19,19.51ZM19.84,21.99L20.58,21.99L19.51,18.58L18.88,18.58L17.82,21.99L18.55,21.99L18.73,21.29L19.67,21.29L19.85,21.99L19.84,21.99ZM15.83,19.16L16.23,19.16C16.5,19.16 16.63,19.33 16.63,19.67C16.63,19.82 16.6,19.94 16.53,20.04C16.46,20.13 16.36,20.18 16.22,20.18L15.83,20.18L15.83,19.16ZM16.68,21.99L17.42,21.99L17.42,21.96L16.82,20.57C17.15,20.39 17.31,20.07 17.31,19.62C17.31,19.29 17.22,19.04 17.03,18.86C16.84,18.68 16.58,18.59 16.23,18.59L15.13,18.59L15.13,22L15.82,22L15.82,20.76L16.16,20.76L16.67,22L16.68,21.99ZM14.31,19.96L13.24,19.96L13.24,19.15L14.5,19.15L14.5,18.58L12.55,18.58L12.55,21.99L14.51,21.99L14.51,21.42L13.24,21.42L13.24,20.52L14.31,20.52L14.31,19.96ZM10.28,19.15L10.76,19.15C10.88,19.15 10.98,19.2 11.06,19.3C11.13,19.4 11.17,19.53 11.17,19.7C11.17,19.87 11.13,19.99 11.06,20.07C10.99,20.16 10.89,20.2 10.76,20.2L10.29,20.2L10.29,19.14L10.28,19.15ZM10.74,20.79C11.09,20.79 11.36,20.69 11.56,20.5C11.76,20.31 11.86,20.04 11.86,19.71C11.86,19.38 11.76,19.11 11.56,18.9C11.36,18.69 11.09,18.59 10.75,18.59L9.59,18.59L9.59,22L10.28,22L10.28,20.8L10.74,20.8L10.74,20.79ZM8.17,20.61C8.17,20.9 8.12,21.11 8.04,21.25C7.95,21.39 7.82,21.46 7.64,21.46C7.46,21.46 7.32,21.39 7.23,21.25C7.14,21.11 7.1,20.89 7.1,20.59L7.1,19.98C7.1,19.69 7.15,19.47 7.24,19.32C7.33,19.18 7.46,19.1 7.64,19.1C7.82,19.1 7.96,19.17 8.05,19.32C8.14,19.47 8.18,19.7 8.18,20.01L8.18,20.6L8.17,20.61ZM8.86,20.01C8.86,19.54 8.75,19.18 8.53,18.92C8.31,18.66 8.01,18.53 7.63,18.53C7.25,18.53 6.94,18.66 6.73,18.92C6.51,19.18 6.4,19.55 6.4,20.01L6.4,20.59C6.4,21.04 6.51,21.39 6.73,21.64C6.95,21.89 7.25,22.02 7.63,22.02C8.01,22.02 8.31,21.89 8.53,21.64C8.75,21.39 8.85,21.03 8.85,20.58L8.85,20L8.86,20.01ZM5.04,20.61C5.04,20.9 4.99,21.11 4.91,21.25C4.82,21.39 4.69,21.46 4.51,21.46C4.33,21.46 4.19,21.39 4.1,21.25C4.01,21.11 3.97,20.89 3.97,20.59L3.97,19.98C3.97,19.69 4.02,19.47 4.11,19.32C4.2,19.18 4.33,19.1 4.51,19.1C4.69,19.1 4.83,19.17 4.92,19.32C5.01,19.47 5.05,19.7 5.05,20.01L5.05,20.6L5.04,20.61ZM5.73,20.01C5.73,19.54 5.62,19.18 5.4,18.92C5.18,18.66 4.88,18.53 4.5,18.53C4.12,18.53 3.81,18.66 3.6,18.92C3.38,19.18 3.28,19.55 3.28,20.01L3.28,20.59C3.28,21.04 3.39,21.39 3.61,21.64C3.83,21.89 4.13,22.02 4.51,22.02C4.89,22.02 5.19,21.89 5.41,21.64C5.63,21.39 5.73,21.03 5.73,20.58L5.73,20L5.73,20.01ZM1.98,20.85C1.98,21.08 1.93,21.24 1.86,21.33C1.79,21.42 1.67,21.46 1.49,21.46C1.31,21.46 1.18,21.4 1.1,21.27C1.02,21.14 0.99,20.91 0.99,20.57L0.99,19.93C0.99,19.63 1.04,19.42 1.11,19.29C1.19,19.16 1.32,19.1 1.5,19.1C1.68,19.1 1.81,19.15 1.87,19.24C1.93,19.33 1.97,19.5 1.98,19.74L2.67,19.74C2.64,19.35 2.53,19.05 2.34,18.85C2.15,18.64 1.87,18.54 1.49,18.54C1.11,18.54 0.82,18.67 0.61,18.92C0.4,19.17 0.29,19.53 0.29,20L0.29,20.57C0.29,21.04 0.39,21.4 0.6,21.65C0.81,21.9 1.1,22.03 1.49,22.03C1.88,22.03 2.14,21.93 2.34,21.73C2.54,21.53 2.65,21.24 2.67,20.85L1.98,20.85Z" style="fill-rule:nonzero;"/>
        </g>
    </g>
</svg>
