<?xml version="1.0" encoding="UTF-8" standalone="no"?>
<!DOCTYPE svg PUBLIC "-//W3C//DTD SVG 1.1//EN" "http://www.w3.org/Graphics/SVG/1.1/DTD/svg11.dtd">
<svg width="100%" height="100%" viewBox="0 0 350 60" version="1.1" xmlns="http://www.w3.org/2000/svg" xmlns:xlink="http://www.w3.org/1999/xlink" xml:space="preserve" xmlns:serif="http://www.serif.com/" style="fill-rule:evenodd;clip-rule:evenodd;stroke-linejoin:round;stroke-miterlimit:2;">
    <g id="Artboard1" transform="matrix(1.06273,0,0,1.5,0,0)">
        <rect x="0" y="0" width="329.339" height="40" style="fill:none;"/>
        <g id="svgg" transform="matrix(0.940969,0,0,0.666667,-23.3704,-14.5581)">
            <path id="path0" d="M234.208,52.042L234.25,71.917L243.5,71.91C252.423,71.904 254.821,71.793 255.407,71.356C255.504,71.284 255.921,71.13 256.333,71.013C257.376,70.718 258.667,70.152 258.667,69.991C258.667,69.917 258.81,69.81 258.985,69.755C259.399,69.623 261.167,67.841 261.167,67.554C261.167,67.433 261.246,67.333 261.343,67.333C261.44,67.333 261.674,66.977 261.863,66.542C262.053,66.106 262.342,65.45 262.506,65.083C263.309,63.284 263.283,57 262.471,57C262.395,57 262.333,56.906 262.333,56.79C262.333,55.965 260.038,53.186 259.127,52.909C258.919,52.846 258.625,52.684 258.472,52.55C258.319,52.416 257.644,52.128 256.972,51.911C256.3,51.693 255.882,51.512 256.044,51.507C256.206,51.503 256.468,51.43 256.627,51.346C256.786,51.261 257.404,50.961 258,50.679C260.356,49.565 261.638,48.078 262.175,45.833C262.295,45.329 262.455,44.845 262.53,44.758C262.712,44.547 262.706,41.211 262.523,41.098C262.444,41.049 262.335,40.688 262.28,40.296C262.146,39.33 261.56,37.603 261.343,37.531C261.246,37.499 261.167,37.407 261.167,37.327C261.167,36.956 259.07,34.5 258.753,34.5C258.693,34.5 258.312,34.272 257.907,33.993C256.879,33.286 255.626,32.876 252.833,32.332C252.421,32.252 248.052,32.182 243.124,32.177L234.165,32.167L234.208,52.042M269.91,32.375C269.867,32.49 269.85,41.433 269.874,52.25L269.917,71.917L282.917,71.963C290.067,71.988 296.087,71.967 296.295,71.917L296.673,71.825L296.583,64.417L277.667,64.331L277.667,32.167L273.828,32.167C270.911,32.167 269.971,32.217 269.91,32.375M301.076,32.375C300.833,33.008 301.103,59.143 301.369,60.833C301.676,62.778 302.26,64.833 302.507,64.833C302.595,64.833 302.667,64.927 302.667,65.042C302.668,65.291 303.357,66.677 303.685,67.088C304.198,67.733 306.151,69.667 306.289,69.667C306.371,69.667 306.583,69.8 306.76,69.964C306.938,70.127 307.383,70.397 307.75,70.564C308.117,70.73 308.717,71.006 309.083,71.177C311.946,72.51 319.2,72.555 321.917,71.257C322.192,71.125 322.836,70.83 323.348,70.6C323.86,70.37 324.376,70.066 324.493,69.925C324.611,69.783 324.794,69.667 324.901,69.667C325.094,69.667 326.744,68.005 327.471,67.078C328.514,65.747 329.563,62.964 329.778,60.958C329.835,60.431 329.945,60 330.024,60C330.102,60 330.167,53.737 330.167,46.083L330.167,32.167L322.333,32.167L322.333,45.071C322.333,59.402 322.157,62 321.184,62C321.095,62 320.974,62.153 320.915,62.34C320.855,62.526 320.525,62.857 320.18,63.075C319.835,63.293 319.427,63.597 319.272,63.752C318.538,64.486 314.699,64.79 313.084,64.242C312.111,63.911 310.5,62.869 310.5,62.569C310.5,62.45 310.355,62.251 310.177,62.126C308.929,61.252 308.787,59.579 308.721,44.958L308.663,32.167L304.909,32.167C302.057,32.167 301.137,32.217 301.076,32.375M337.874,52.042L337.917,71.917L364.417,71.917L364.461,68.125L364.506,64.333L345.667,64.333L345.667,56.003L361.583,55.917L361.631,52.5C361.656,50.621 361.636,48.915 361.586,48.708L361.494,48.333L345.667,48.333L345.667,39.667L364.5,39.667L364.5,32.167L337.832,32.167L337.874,52.042M252.833,40.346C255.446,41.784 255.415,45.708 252.781,47.176L251.75,47.75L242,47.852L242,39.648L251.75,39.75L252.833,40.346M251.826,55.513C253.498,55.898 254.226,56.476 254.943,57.99C255.457,59.075 255.458,61.236 254.944,61.803C254.792,61.972 254.667,62.167 254.667,62.237C254.667,62.481 254.018,63.186 253.419,63.593C252.462,64.242 251.708,64.325 246.708,64.329L242,64.333L242,55.333L246.542,55.337C249.04,55.34 251.418,55.419 251.826,55.513"/>
            <path id="path1" d="M48.833,31.94C48.604,31.974 47.854,32.084 47.167,32.185C46.479,32.287 45.879,32.422 45.833,32.485C45.788,32.548 45.194,32.765 44.514,32.967C42.725,33.497 39.333,35.78 39.333,36.454C39.333,36.527 39.161,36.773 38.95,37.002C38.592,37.391 37.833,38.789 37.833,39.062C37.833,39.13 37.682,39.518 37.496,39.925C36.793,41.469 36.807,48.333 37.513,48.333C37.598,48.333 37.667,48.465 37.668,48.625C37.673,49.536 40.45,53.167 41.142,53.167C41.244,53.167 41.686,53.386 42.122,53.655C42.559,53.924 43.554,54.301 44.333,54.495C45.112,54.688 45.876,54.915 46.03,55C46.298,55.148 48.761,55.595 51.569,56.005C52.294,56.111 53.007,56.256 53.152,56.328C53.298,56.4 53.863,56.598 54.409,56.768C55.731,57.18 56.929,58.133 57.157,58.955C57.599,60.547 57.075,62.692 56.125,63.182C55.919,63.288 55.6,63.511 55.417,63.677C54.006,64.954 45.487,65.072 43.917,63.836C43.825,63.763 43.15,63.457 42.417,63.154C41.683,62.851 40.982,62.503 40.858,62.379C40.733,62.256 40.349,62.011 40.003,61.835C39.657,61.659 39.33,61.399 39.276,61.257C39.046,60.659 38.43,60.978 38,61.917C37.771,62.417 37.533,62.828 37.47,62.83C37.408,62.832 37.119,63.34 36.827,63.958C36.535,64.577 36.239,65.121 36.17,65.167C35.95,65.312 35.167,66.976 35.167,67.297C35.167,67.485 35.437,67.757 35.858,67.994C36.238,68.207 36.677,68.511 36.835,68.668C36.992,68.825 37.562,69.162 38.102,69.416C38.642,69.67 39.121,69.935 39.167,70.004C39.278,70.171 42.269,71.167 42.662,71.167C42.833,71.167 42.997,71.235 43.028,71.319C43.426,72.415 56.607,72.428 56.972,71.333C57.003,71.242 57.153,71.165 57.306,71.162C57.795,71.154 59.803,70.219 60.478,69.684C60.837,69.399 61.175,69.167 61.228,69.167C61.329,69.167 62.833,67.7 62.833,67.601C62.833,67.57 63.154,67.065 63.546,66.48C64.062,65.709 64.342,65.05 64.564,64.083C64.733,63.35 64.937,62.62 65.019,62.461C65.227,62.053 65.21,57.667 65,57.667C64.908,57.667 64.833,57.493 64.833,57.28C64.833,56.415 63.946,54 63.629,54C63.558,54 63.5,53.906 63.499,53.792C63.498,53.583 61.49,51.5 61.29,51.5C61.232,51.5 61.001,51.33 60.777,51.123C60.553,50.915 59.968,50.603 59.477,50.428C58.985,50.254 58.543,50.051 58.493,49.977C58.444,49.904 57.581,49.647 56.577,49.406C55.572,49.165 54.6,48.906 54.417,48.83C53.999,48.658 53.726,48.599 50.928,48.082C49.679,47.852 48.527,47.595 48.37,47.513C48.212,47.43 47.636,47.155 47.089,46.901C46.542,46.648 45.91,46.221 45.684,45.952C45.458,45.683 45.161,45.352 45.025,45.215C44.664,44.854 44.543,42.481 44.869,42.155C45.001,42.023 45.216,41.695 45.347,41.428C45.477,41.16 45.921,40.756 46.333,40.529C46.746,40.302 47.121,40.06 47.167,39.99C47.734,39.134 54.25,39.192 55.917,40.068C56.192,40.213 56.479,40.332 56.555,40.332C56.778,40.334 58.909,41.206 59,41.333C59.046,41.397 59.458,41.657 59.917,41.91C60.375,42.164 60.803,42.456 60.868,42.559C61.064,42.871 61.265,42.55 62.841,39.42C64.57,35.984 64.575,35.962 63.625,35.481C63.235,35.283 62.879,35.065 62.833,34.995C62.585,34.617 58.337,32.835 57.679,32.832C57.535,32.832 57.199,32.718 56.932,32.579C55.893,32.037 50.871,31.641 48.833,31.94M71.541,52.033L71.583,71.917L75.083,71.964C77.008,71.99 78.752,71.97 78.958,71.919L79.333,71.827L79.333,56.694L84.875,56.639C88.139,56.606 90.519,56.516 90.667,56.419C90.804,56.328 91.367,56.128 91.917,55.974C93.306,55.584 94.181,55.245 94.309,55.047C94.368,54.955 94.672,54.749 94.984,54.589C95.868,54.136 97.743,52.168 98.251,51.161C98.504,50.66 98.761,50.212 98.823,50.167C99.172,49.909 99.825,47.254 99.83,46.075C99.832,45.704 99.917,45.317 100.019,45.214C100.128,45.105 100.165,44.765 100.109,44.389C100.057,44.038 99.935,43.16 99.839,42.438C99.604,40.674 99.24,39.482 98.536,38.175C97.913,37.019 97.744,36.795 96.725,35.775C95.523,34.572 95.246,34.333 95.053,34.333C94.946,34.333 94.647,34.156 94.388,33.939C93.888,33.52 91.556,32.667 90.912,32.667C90.7,32.667 90.497,32.573 90.458,32.458C90.404,32.296 88.316,32.239 80.944,32.199L71.499,32.149L71.541,52.033M105.5,52.083L105.5,72L113.333,72L113.333,32.167L105.5,32.167L105.5,52.083M121.333,51.993L121.333,71.833L129,71.833L129,56L131.083,56C132.824,56 133.167,56.041 133.167,56.25C133.167,56.387 133.302,56.635 133.466,56.8C133.631,56.965 134.014,57.614 134.317,58.242C134.62,58.871 134.942,59.467 135.033,59.567C135.224,59.78 136.062,61.285 136.853,62.833C137.157,63.429 137.459,63.955 137.523,64.002C137.588,64.048 137.845,64.498 138.096,65.002C138.347,65.505 138.601,65.954 138.661,66C138.721,66.046 139.022,66.59 139.33,67.208C139.638,67.827 139.936,68.333 139.992,68.333C140.048,68.333 140.311,68.821 140.577,69.417C140.843,70.012 141.11,70.5 141.171,70.5C141.233,70.5 141.418,70.8 141.583,71.167L141.884,71.833L146.525,71.833C149.078,71.833 151.167,71.783 151.167,71.722C151.167,71.503 150.091,69.333 149.983,69.333C149.922,69.333 149.663,68.902 149.408,68.375C149.152,67.848 148.887,67.378 148.818,67.332C148.749,67.285 148.497,66.856 148.258,66.38C148.018,65.903 147.731,65.416 147.619,65.298C147.507,65.18 147.197,64.645 146.93,64.109C146.663,63.573 146.363,63.047 146.264,62.939C146.164,62.832 145.896,62.37 145.667,61.914C145.438,61.457 145.081,60.871 144.875,60.612C144.669,60.353 144.5,60.051 144.5,59.942C144.5,59.832 144.233,59.337 143.906,58.841C143.58,58.345 143.215,57.706 143.096,57.421C142.977,57.136 142.76,56.784 142.615,56.639C142.215,56.239 142.067,55.5 142.388,55.5C142.724,55.5 143.26,55.261 144.083,54.745C144.45,54.516 144.919,54.256 145.125,54.168C145.331,54.08 145.5,53.941 145.5,53.86C145.5,53.778 145.8,53.512 146.167,53.27C146.533,53.027 146.833,52.723 146.833,52.593C146.833,52.464 147.004,52.221 147.214,52.054C147.621,51.728 148.5,50.164 148.5,49.765C148.5,49.632 148.607,49.417 148.738,49.285C149.774,48.25 149.774,40.083 148.738,39.048C148.607,38.917 148.5,38.699 148.5,38.565C148.5,38.008 146.938,35.565 146.449,35.357C146.372,35.324 146.077,35.043 145.794,34.732C145.511,34.421 145.196,34.167 145.094,34.167C144.991,34.167 144.789,34.028 144.644,33.859C144.499,33.689 143.788,33.345 143.065,33.094C142.342,32.843 141.6,32.551 141.417,32.444C141.176,32.304 138.337,32.236 131.208,32.201L121.333,32.152L121.333,51.993M168.449,32.292C168.41,32.36 168.208,32.942 168,33.583C167.792,34.225 167.559,34.83 167.483,34.928C167.406,35.026 167.105,35.813 166.814,36.678C166.523,37.543 166.236,38.287 166.176,38.333C166.116,38.379 165.846,39.092 165.575,39.917C165.305,40.742 165.031,41.44 164.966,41.47C164.902,41.499 164.613,42.249 164.325,43.136C164.036,44.024 163.75,44.788 163.687,44.833C163.625,44.879 163.351,45.592 163.079,46.417C162.806,47.242 162.534,47.939 162.474,47.967C162.414,47.994 162.117,48.782 161.814,49.717C161.511,50.652 161.211,51.454 161.147,51.5C161.084,51.546 160.823,52.221 160.568,53C160.313,53.779 160.048,54.456 159.979,54.504C159.909,54.552 159.609,55.339 159.311,56.254C159.014,57.168 158.72,57.954 158.66,58C158.599,58.046 158.336,58.721 158.076,59.5C157.815,60.279 157.553,60.954 157.492,61C157.432,61.046 157.136,61.833 156.833,62.75C156.531,63.667 156.235,64.454 156.175,64.5C156.116,64.546 155.846,65.258 155.575,66.083C155.305,66.908 155.031,67.607 154.966,67.636C154.902,67.665 154.613,68.415 154.325,69.303C154.036,70.19 153.746,70.954 153.68,71C153.44,71.166 153.364,71.63 153.546,71.813C153.764,72.031 161.286,72.078 161.624,71.863C161.739,71.79 161.952,71.329 162.098,70.837C162.244,70.345 162.458,69.787 162.575,69.596C162.691,69.406 163,68.5 163.261,67.583C163.522,66.667 163.814,65.862 163.909,65.794C164.005,65.727 167.245,65.671 171.108,65.669L178.133,65.667L178.333,66.5C178.443,66.958 178.592,67.333 178.664,67.333C178.736,67.333 178.833,67.502 178.88,67.708C179.106,68.695 179.88,71.093 179.997,71.167C180.069,71.212 180.157,71.4 180.191,71.583C180.279,72.048 188.5,72.203 188.5,71.739C188.5,71.388 187.657,68.94 187.499,68.833C187.431,68.787 187.172,68.094 186.924,67.293C186.675,66.491 186.413,65.799 186.341,65.755C186.27,65.711 185.963,64.904 185.659,63.962C185.355,63.021 185.05,62.211 184.981,62.164C184.912,62.116 184.662,61.485 184.426,60.762C184.19,60.038 183.93,59.365 183.85,59.265C183.769,59.165 183.458,58.333 183.159,57.417C182.859,56.5 182.554,55.71 182.479,55.66C182.405,55.611 182.185,55.048 181.991,54.41C181.796,53.772 181.54,53.096 181.42,52.908C181.3,52.72 180.958,51.82 180.658,50.908C180.359,49.996 180.062,49.212 179.999,49.167C179.935,49.121 179.713,48.558 179.506,47.917C179.298,47.275 179.036,46.6 178.923,46.417C178.811,46.233 178.47,45.333 178.168,44.417C177.865,43.5 177.566,42.712 177.503,42.667C177.44,42.621 177.18,41.946 176.924,41.167C176.669,40.387 176.408,39.712 176.345,39.667C176.283,39.621 175.98,38.833 175.673,37.917C175.365,37 175.022,36.1 174.909,35.917C174.796,35.733 174.539,35.04 174.338,34.375C174.137,33.71 173.909,33.167 173.833,33.167C173.756,33.167 173.644,32.942 173.583,32.667L173.474,32.167L170.997,32.167C169.634,32.167 168.488,32.223 168.449,32.292M193.041,52.042L193.083,71.917L206.375,71.959L219.667,72.002L219.667,64.333L200.833,64.333L200.833,32.167L192.999,32.167L193.041,52.042M89.125,39.958C89.163,40.073 89.265,40.167 89.351,40.167C89.647,40.167 90.85,41.015 90.956,41.299C91.015,41.455 91.159,41.658 91.276,41.75C92.099,42.394 92.122,46.424 91.306,47.079C91.183,47.177 91.001,47.406 90.901,47.587C90.801,47.768 90.463,48.084 90.151,48.289C89.839,48.493 89.473,48.756 89.338,48.872C89.155,49.029 87.847,49.097 84.213,49.136L79.333,49.189L79.333,39.644L84.195,39.697C87.897,39.737 89.072,39.8 89.125,39.958M139.298,39.935C139.363,40.037 139.659,40.244 139.956,40.396C140.252,40.548 140.619,40.915 140.77,41.211C140.922,41.508 141.114,41.794 141.197,41.848C141.726,42.19 141.676,46.5 141.143,46.5C141.068,46.5 140.859,46.789 140.679,47.142C140.044,48.387 139.474,48.5 133.844,48.5L129,48.5L129,39.653L134.09,39.701C137.588,39.735 139.216,39.808 139.298,39.935M171.801,47.709C172.105,48.736 172.407,49.615 172.474,49.663C172.54,49.711 172.805,50.462 173.062,51.333C173.319,52.203 173.587,52.953 173.656,52.999C173.726,53.046 174.024,53.907 174.32,54.914C174.615,55.921 174.93,56.832 175.019,56.939C175.108,57.047 175.247,57.367 175.329,57.651L175.477,58.167L171.054,58.167C167.586,58.167 166.647,58.122 166.707,57.958C166.748,57.844 166.917,57.244 167.082,56.625C167.248,56.006 167.437,55.5 167.503,55.5C167.569,55.5 167.869,54.656 168.169,53.625C168.469,52.594 168.772,51.712 168.842,51.666C168.913,51.62 169.181,50.87 169.44,49.999C169.698,49.129 169.959,48.394 170.019,48.367C170.08,48.34 170.3,47.728 170.508,47.008C170.99,45.34 171.123,45.412 171.801,47.709"/>
        </g>
    </g>
</svg>
