<?xml version="1.0" encoding="UTF-8" standalone="no"?>
<!DOCTYPE svg PUBLIC "-//W3C//DTD SVG 1.1//EN" "http://www.w3.org/Graphics/SVG/1.1/DTD/svg11.dtd">
<svg width="100%" height="100%" viewBox="0 0 480 210" version="1.1" xmlns="http://www.w3.org/2000/svg" xmlns:xlink="http://www.w3.org/1999/xlink" xml:space="preserve" xmlns:serif="http://www.serif.com/" style="fill-rule:evenodd;clip-rule:evenodd;stroke-linejoin:round;stroke-miterlimit:2;">
    <g id="Artboard1" transform="matrix(1.0577,0,0,1.09137,0,0)">
        <rect x="0" y="0" width="453.816" height="192.418" style="fill:none;"/>
        <g transform="matrix(0.94545,0,0,0.916277,7.47756,6.37071)">
            <g id="UTS_Logo_Horizontal_Lock-Up">
                <g>
                    <path d="M268.891,69.026L296.785,69.026L296.785,174.596L325.322,174.596L325.322,69.026L353.217,69.026L353.217,43.707L268.891,43.707L268.891,69.026Z" style="fill-rule:nonzero;"/>
                    <path d="M215.248,134.149C215.248,144.663 209.025,151.314 199.263,151.314C189.285,151.314 183.278,144.77 183.278,134.149L183.278,43.707L154.739,43.707L154.739,134.578C154.739,160.541 172.656,176.634 199.156,176.634C225.655,176.634 243.572,160.434 243.572,134.578L243.572,43.707L215.034,43.707L215.034,134.149L215.248,134.149Z" style="fill-rule:nonzero;"/>
                    <path d="M427.029,96.921L410.721,90.698C401.709,87.265 400.207,81.579 400.207,77.717C400.207,70.529 405.356,65.165 414.583,65.165C423.596,65.165 429.496,71.173 429.496,80.507L429.496,84.047L456.21,84.047L456.21,81.043C456.21,56.689 439.474,41.562 414.583,41.562C388.513,41.562 373.278,59.479 373.278,79.434C373.278,98.531 383.256,109.903 402.138,117.091L420.484,124.064C428.637,127.283 431.856,131.681 431.856,138.226C431.856,147.345 425.848,152.817 415.12,152.817C404.392,152.817 397.739,147.882 397.739,137.261L397.739,132.54L370.811,132.54L370.811,137.153C370.811,161.507 389.585,176.633 415.12,176.633C443.014,176.633 458.999,159.682 458.999,135.543C458.894,111.404 443.337,103.036 427.029,96.921Z" style="fill-rule:nonzero;"/>
                    <g transform="matrix(-0.7071,0.7071,-0.7071,-0.7071,99.0517,154.291)">
                        <rect x="8.828" y="88.916" width="17.487" height="17.487"/>
                    </g>
                    <path d="M57.753,100.568L67.194,110.009L79.531,97.671L66.871,85.012C61.829,79.969 53.568,79.969 48.525,85.012L5.183,128.355L17.521,140.693L57.753,100.568Z" style="fill-rule:nonzero;"/>
                    <path d="M54.749,153.138L42.411,140.801L32.97,150.241L23.529,140.801L11.191,153.138L23.851,165.798C28.893,170.841 37.155,170.841 42.197,165.798L54.749,153.138Z" style="fill-rule:nonzero;"/>
                    <path d="M57.753,174.917L48.312,165.476L35.974,177.814L48.526,190.474C53.568,195.517 61.829,195.517 66.872,190.474L79.532,177.814L67.195,165.476L57.753,174.917Z" style="fill-rule:nonzero;"/>
                    <path d="M82.536,150.134L73.095,140.694L60.757,153.032L73.417,165.691C78.459,170.734 86.721,170.734 91.763,165.691L104.423,153.032L91.978,140.694L82.536,150.134Z" style="fill-rule:nonzero;"/>
                    <g transform="matrix(-0.7071,0.7071,-0.7071,-0.7071,257.731,149.914)">
                        <rect x="89.074" y="119.591" width="17.487" height="17.487"/>
                    </g>
                    <path d="M57.753,125.352L48.312,115.911L35.974,128.249L48.634,140.908C53.676,145.951 61.937,145.951 66.98,140.908L110.323,97.565L97.985,85.227L57.753,125.352Z" style="fill-rule:nonzero;"/>
                    <g transform="matrix(-0.7073,0.707,-0.707,-0.7073,111.615,-9.467)">
                        <rect x="46.073" y="6.681" width="23.389" height="23.389"/>
                    </g>
                    <path d="M37.154,55.938L48.955,55.938L48.955,79.433C54.319,76.214 61.078,76.214 66.442,79.433L66.442,55.938L78.244,55.938L85.969,63.662L102.491,47.141L85.969,30.619L78.244,38.343L37.154,38.343L29.429,30.619L12.8,47.248L29.322,63.77L37.154,55.938Z" style="fill-rule:nonzero;"/>
                </g>
            </g>
        </g>
    </g>
</svg>
