<?xml version="1.0" encoding="UTF-8" standalone="no"?>
<!DOCTYPE svg PUBLIC "-//W3C//DTD SVG 1.1//EN" "http://www.w3.org/Graphics/SVG/1.1/DTD/svg11.dtd">
<svg width="100%" height="100%" viewBox="0 0 6794 1200" version="1.1" xmlns="http://www.w3.org/2000/svg" xmlns:xlink="http://www.w3.org/1999/xlink" xml:space="preserve" xmlns:serif="http://www.serif.com/" style="fill-rule:evenodd;clip-rule:evenodd;stroke-linejoin:round;stroke-miterlimit:2;">
    <g id="mawson-rovers-pcb-logo" transform="matrix(6.29028,0,0,1.11111,0,0)">
        <rect x="0" y="0" width="1080" height="1080" style="fill:none;"/>
        <g transform="matrix(0.158976,0,0,0.9,-216.167,90)">
            <path d="M1959.75,30C2219.15,30 2429.75,240.6 2429.75,500C2429.75,759.4 2219.15,970 1959.75,970C1700.35,970 1489.75,759.4 1489.75,500C1489.75,240.6 1700.35,30 1959.75,30ZM1813.59,481.64L1959.75,717.8L2105.91,481.64L2138.31,764.6L2245.59,764.6L2170.71,235.4L1959.75,560.84L1748.79,235.4L1673.91,764.6L1781.19,764.6L1813.59,481.64Z"/>
        </g>
        <g transform="matrix(0.158976,0,0,0.9,-1097.82,-43.56)">
            <path d="M8376.1,623.632L8493.02,812.56L8609.95,623.632L8635.87,850L8721.7,850L8661.79,426.64L8493.02,686.992L8324.26,426.64L8264.35,850L8350.18,850L8376.1,623.632Z" style="fill-rule:nonzero;"/>
            <path d="M8842.08,758.416L9055.2,758.416L9045.41,693.328L8851.87,693.328L8842.08,758.416ZM8947.49,577.552L9007.97,717.52L9006.82,738.256L9058.66,850L9151.97,850L8947.49,423.184L8743.01,850L8835.74,850L8888.74,734.8L8887.01,716.368L8947.49,577.552Z" style="fill-rule:nonzero;"/>
            <path d="M9495.84,697.36L9382.37,426.64L9270.05,697.36L9182.5,446.8L9085.73,446.8L9255.07,872.464L9382.37,607.504L9509.09,872.464L9679.01,446.8L9582.24,446.8L9495.84,697.36Z" style="fill-rule:nonzero;"/>
            <path d="M9760.8,714.64L9702.05,756.112C9710.88,774.928 9723.17,792.4 9738.91,808.528C9754.66,824.656 9773.18,837.424 9794.5,846.832C9815.81,856.24 9838.75,860.944 9863.33,860.944C9881.76,860.944 9899.33,858.16 9916.03,852.592C9932.74,847.024 9947.81,838.96 9961.25,828.4C9974.69,817.84 9985.25,804.88 9992.93,789.52C10000.6,774.16 10004.4,756.688 10004.4,737.104C10004.4,719.824 10001.7,704.56 9996.1,691.312C9990.53,678.064 9982.85,666.544 9973.06,656.752C9963.26,646.96 9952.32,638.608 9940.22,631.696C9928.13,624.784 9915.55,619.024 9902.5,614.416C9882.14,607.504 9865.25,600.688 9851.81,593.968C9838.37,587.248 9828.38,580.144 9821.86,572.656C9815.33,565.168 9812.06,556.432 9812.06,546.448C9812.06,536.464 9816.1,527.728 9824.16,520.24C9832.22,512.752 9844.32,509.008 9860.45,509.008C9872.74,509.008 9883.68,511.408 9893.28,516.208C9902.88,521.008 9911.42,527.344 9918.91,535.216C9926.4,543.088 9932.83,551.824 9938.21,561.424L10002.7,525.712C9995.81,511.504 9986.11,497.776 9973.63,484.528C9961.15,471.28 9945.6,460.336 9926.98,451.696C9908.35,443.056 9886.18,438.736 9860.45,438.736C9835.49,438.736 9812.93,443.248 9792.77,452.272C9772.61,461.296 9756.67,474.16 9744.96,490.864C9733.25,507.568 9727.39,527.44 9727.39,550.48C9727.39,569.68 9731.04,586.096 9738.34,599.728C9745.63,613.36 9754.85,624.88 9765.98,634.288C9777.12,643.696 9788.93,651.376 9801.41,657.328C9813.89,663.28 9824.93,667.984 9834.53,671.44C9852.58,678.352 9867.84,684.784 9880.32,690.736C9892.8,696.688 9902.21,703.504 9908.54,711.184C9914.88,718.864 9918.05,729.04 9918.05,741.712C9918.05,756.304 9912.86,767.824 9902.5,776.272C9892.13,784.72 9878.69,788.944 9862.18,788.944C9847.97,788.944 9834.72,785.872 9822.43,779.728C9810.14,773.584 9798.91,764.944 9788.74,753.808C9778.56,742.672 9769.25,729.616 9760.8,714.64Z" style="fill-rule:nonzero;"/>
            <path d="M10135.8,648.4C10135.8,622.672 10141.2,599.824 10151.9,579.856C10162.7,559.888 10177.4,544.144 10196.3,532.624C10215.1,521.104 10237,515.344 10261.9,515.344C10287.3,515.344 10309.3,521.104 10328.2,532.624C10347,544.144 10361.6,559.888 10371.9,579.856C10382.3,599.824 10387.5,622.672 10387.5,648.4C10387.5,674.128 10382.2,696.976 10371.6,716.944C10361.1,736.912 10346.4,752.656 10327.6,764.176C10308.8,775.696 10286.9,781.456 10261.9,781.456C10237,781.456 10215.1,775.696 10196.3,764.176C10177.4,752.656 10162.7,736.912 10151.9,716.944C10141.2,696.976 10135.8,674.128 10135.8,648.4ZM10048.8,648.4C10048.8,678.736 10054,706.864 10064.4,732.784C10074.7,758.704 10089.5,781.264 10108.7,800.464C10127.9,819.664 10150.5,834.544 10176.4,845.104C10202.3,855.664 10230.8,860.944 10261.9,860.944C10293,860.944 10321.5,855.664 10347.5,845.104C10373.4,834.544 10395.8,819.664 10414.8,800.464C10433.9,781.264 10448.6,758.704 10459.2,732.784C10469.8,706.864 10475,678.736 10475,648.4C10475,617.68 10469.8,589.552 10459.2,564.016C10448.6,538.48 10433.7,516.304 10414.3,497.488C10394.9,478.672 10372.3,464.176 10346.6,454C10320.9,443.824 10292.6,438.736 10261.9,438.736C10231.6,438.736 10203.5,443.824 10177.5,454C10151.6,464.176 10129.1,478.672 10109.9,497.488C10090.7,516.304 10075.7,538.48 10064.9,564.016C10054.2,589.552 10048.8,617.68 10048.8,648.4Z" style="fill-rule:nonzero;"/>
            <path d="M10825.8,446.8L10825.8,696.784L10539,426.64L10539,850L10618.5,850L10618.5,600.016L10905.3,870.16L10905.3,446.8L10825.8,446.8Z" style="fill-rule:nonzero;"/>
            <path d="M11257.2,662.224L11378.2,850L11475.6,850L11344.2,662.224L11257.2,662.224ZM11165.7,446.8L11165.7,850L11248,850L11248,446.8L11165.7,446.8ZM11215.8,517.072L11295.8,517.072C11310.4,517.072 11323,519.472 11333.6,524.272C11344.1,529.072 11352.3,535.984 11358,545.008C11363.8,554.032 11366.7,564.88 11366.7,577.552C11366.7,590.224 11363.8,601.072 11358,610.096C11352.3,619.12 11344.1,626.032 11333.6,630.832C11323,635.632 11310.4,638.032 11295.8,638.032L11215.8,638.032L11215.8,703.696L11301,703.696C11332.9,703.696 11360,698.32 11382.2,687.568C11404.5,676.816 11421.6,661.744 11433.5,642.352C11445.4,622.96 11451.4,600.592 11451.4,575.248C11451.4,549.52 11445.4,527.056 11433.5,507.856C11421.6,488.656 11404.5,473.68 11382.2,462.928C11360,452.176 11332.9,446.8 11301,446.8L11215.8,446.8L11215.8,517.072Z" style="fill-rule:nonzero;"/>
            <path d="M11586.7,648.4C11586.7,622.672 11592.1,599.824 11602.8,579.856C11613.6,559.888 11628.4,544.144 11647.2,532.624C11666,521.104 11687.9,515.344 11712.9,515.344C11738.2,515.344 11760.3,521.104 11779.1,532.624C11797.9,544.144 11812.5,559.888 11822.9,579.856C11833.2,599.824 11838.4,622.672 11838.4,648.4C11838.4,674.128 11833.2,696.976 11822.6,716.944C11812,736.912 11797.3,752.656 11778.5,764.176C11759.7,775.696 11737.8,781.456 11712.9,781.456C11687.9,781.456 11666,775.696 11647.2,764.176C11628.4,752.656 11613.6,736.912 11602.8,716.944C11592.1,696.976 11586.7,674.128 11586.7,648.4ZM11499.7,648.4C11499.7,678.736 11504.9,706.864 11515.3,732.784C11525.7,758.704 11540.4,781.264 11559.6,800.464C11578.8,819.664 11601.4,834.544 11627.3,845.104C11653.2,855.664 11681.8,860.944 11712.9,860.944C11744,860.944 11772.5,855.664 11798.4,845.104C11824.3,834.544 11846.8,819.664 11865.8,800.464C11884.8,781.264 11899.6,758.704 11910.1,732.784C11920.7,706.864 11926,678.736 11926,648.4C11926,617.68 11920.7,589.552 11910.1,564.016C11899.6,538.48 11884.6,516.304 11865.2,497.488C11845.8,478.672 11823.3,464.176 11797.5,454C11771.8,443.824 11743.6,438.736 11712.9,438.736C11682.5,438.736 11654.4,443.824 11628.5,454C11602.6,464.176 11580,478.672 11560.8,497.488C11541.6,516.304 11526.6,538.48 11515.9,564.016C11505.1,589.552 11499.7,617.68 11499.7,648.4Z" style="fill-rule:nonzero;"/>
            <path d="M12133.9,709.456L12024.5,446.8L11929.4,446.8L12133.9,873.616L12338.4,446.8L12242.8,446.8L12133.9,709.456Z" style="fill-rule:nonzero;"/>
            <path d="M12435.2,850L12638.5,850L12638.5,780.304L12435.2,780.304L12435.2,850ZM12435.2,516.496L12638.5,516.496L12638.5,446.8L12435.2,446.8L12435.2,516.496ZM12435.2,670.288L12627,670.288L12627,601.744L12435.2,601.744L12435.2,670.288ZM12382.2,446.8L12382.2,850L12461.7,850L12461.7,446.8L12382.2,446.8Z" style="fill-rule:nonzero;"/>
            <path d="M12811.3,662.224L12932.3,850L13029.6,850L12898.3,662.224L12811.3,662.224ZM12719.7,446.8L12719.7,850L12802.1,850L12802.1,446.8L12719.7,446.8ZM12769.8,517.072L12849.9,517.072C12864.5,517.072 12877.1,519.472 12887.6,524.272C12898.2,529.072 12906.3,535.984 12912.1,545.008C12917.9,554.032 12920.7,564.88 12920.7,577.552C12920.7,590.224 12917.9,601.072 12912.1,610.096C12906.3,619.12 12898.2,626.032 12887.6,630.832C12877.1,635.632 12864.5,638.032 12849.9,638.032L12769.8,638.032L12769.8,703.696L12855.1,703.696C12886.9,703.696 12914,698.32 12936.3,687.568C12958.6,676.816 12975.6,661.744 12987.6,642.352C12999.5,622.96 13005.4,600.592 13005.4,575.248C13005.4,549.52 12999.5,527.056 12987.6,507.856C12975.6,488.656 12958.6,473.68 12936.3,462.928C12914,452.176 12886.9,446.8 12855.1,446.8L12769.8,446.8L12769.8,517.072Z" style="fill-rule:nonzero;"/>
            <path d="M13112,714.64L13053.2,756.112C13062,774.928 13074.3,792.4 13090.1,808.528C13105.8,824.656 13124.4,837.424 13145.7,846.832C13167,856.24 13189.9,860.944 13214.5,860.944C13232.9,860.944 13250.5,858.16 13267.2,852.592C13283.9,847.024 13299,838.96 13312.4,828.4C13325.9,817.84 13336.4,804.88 13344.1,789.52C13351.8,774.16 13355.6,756.688 13355.6,737.104C13355.6,719.824 13352.8,704.56 13347.3,691.312C13341.7,678.064 13334,666.544 13324.2,656.752C13314.4,646.96 13303.5,638.608 13291.4,631.696C13279.3,624.784 13266.7,619.024 13253.7,614.416C13233.3,607.504 13216.4,600.688 13203,593.968C13189.5,587.248 13179.6,580.144 13173,572.656C13166.5,565.168 13163.2,556.432 13163.2,546.448C13163.2,536.464 13167.3,527.728 13175.3,520.24C13183.4,512.752 13195.5,509.008 13211.6,509.008C13223.9,509.008 13234.8,511.408 13244.4,516.208C13254,521.008 13262.6,527.344 13270.1,535.216C13277.6,543.088 13284,551.824 13289.4,561.424L13353.9,525.712C13347,511.504 13337.3,497.776 13324.8,484.528C13312.3,471.28 13296.8,460.336 13278.1,451.696C13259.5,443.056 13237.3,438.736 13211.6,438.736C13186.7,438.736 13164.1,443.248 13143.9,452.272C13123.8,461.296 13107.8,474.16 13096.1,490.864C13084.4,507.568 13078.6,527.44 13078.6,550.48C13078.6,569.68 13082.2,586.096 13089.5,599.728C13096.8,613.36 13106,624.88 13117.2,634.288C13128.3,643.696 13140.1,651.376 13152.6,657.328C13165.1,663.28 13176.1,667.984 13185.7,671.44C13203.7,678.352 13219,684.784 13231.5,690.736C13244,696.688 13253.4,703.504 13259.7,711.184C13266,718.864 13269.2,729.04 13269.2,741.712C13269.2,756.304 13264,767.824 13253.7,776.272C13243.3,784.72 13229.9,788.944 13213.3,788.944C13199.1,788.944 13185.9,785.872 13173.6,779.728C13161.3,773.584 13150.1,764.944 13139.9,753.808C13129.7,742.672 13120.4,729.616 13112,714.64Z" style="fill-rule:nonzero;"/>
        </g>
    </g>
</svg>
